<?xml version="1.0" encoding="UTF-8" standalone="no" ?>
<!DOCTYPE svg PUBLIC "-//W3C//DTD SVG 1.1//EN" "http://www.w3.org/Graphics/SVG/1.1/DTD/svg11.dtd">
<svg xmlns="http://www.w3.org/2000/svg" xmlns:xlink="http://www.w3.org/1999/xlink" version="1.1" width="400" height="400" viewBox="0 0 400 400" xml:space="preserve">
<desc>Created with Fabric.js 4.6.0</desc>
<defs>
</defs>
<g transform="matrix(5.48 0 0 5.48 200 200)" id="W6dCigdD-m8vt8sJdtMmj"  >
<g style="" vector-effect="non-scaling-stroke"   >
		<g transform="matrix(1 0 0 1 0.13 0)" id="uRcD8_9TCRg1vylT_Insi"  >
<path style="stroke: none; stroke-width: 1; stroke-dasharray: none; stroke-linecap: butt; stroke-dashoffset: 0; stroke-linejoin: miter; stroke-miterlimit: 4; fill: rgb(196,196,196); fill-rule: nonzero; opacity: 1;" vector-effect="non-scaling-stroke"  transform=" translate(-36.63, -36.5)" d="M 0 0 L 73.27 0 L 73.27 73 L 0 73 L 0 0 Z" stroke-linecap="round" />
</g>
		<g transform="matrix(1 0 0 1 0 -10.57)" id="L8m2wSE1cL2MZF9thexco"  >
<path style="stroke: none; stroke-width: 1; stroke-dasharray: none; stroke-linecap: butt; stroke-dashoffset: 0; stroke-linejoin: miter; stroke-miterlimit: 4; fill: rgb(102,104,118); fill-rule: nonzero; opacity: 1;" vector-effect="non-scaling-stroke"  transform=" translate(-36.5, -25.93)" d="M 37.33 12.78 L 38.6 12.94 L 39.81 13.21 L 40.97 13.57 L 42.07 14.02 L 43.11 14.57 L 44.08 15.2 L 44.98 15.92 L 45.8 16.71 L 46.54 17.59 L 47.2 18.53 L 47.77 19.55 L 48.24 20.63 L 48.61 21.77 L 48.89 22.96 L 49.06 24.21 L 49.11 25.52 L 49.1 26.4 L 49.05 27.29 L 48.96 28.16 L 48.84 29.03 L 48.68 29.88 L 48.49 30.72 L 48.25 31.53 L 47.97 32.33 L 47.66 33.09 L 47.29 33.83 L 46.89 34.53 L 46.44 35.2 L 45.94 35.83 L 45.39 36.42 L 44.8 36.96 L 44.16 37.46 L 43.46 37.9 L 43.09 38.09 L 42.69 38.27 L 42.27 38.42 L 41.82 38.55 L 41.35 38.67 L 40.87 38.77 L 40.38 38.85 L 39.88 38.92 L 39.37 38.98 L 38.85 39.02 L 38.34 39.06 L 37.83 39.08 L 37.32 39.1 L 36.98 39.11 L 36.98 39.13 L 36.66 39.12 L 36.5 39.12 L 36.34 39.12 L 36.02 39.13 L 36.02 39.11 L 35.68 39.1 L 35.17 39.08 L 34.66 39.06 L 34.15 39.02 L 33.63 38.98 L 33.12 38.92 L 32.62 38.85 L 32.13 38.77 L 31.65 38.67 L 31.18 38.55 L 30.73 38.42 L 30.31 38.27 L 29.91 38.09 L 29.54 37.9 L 28.84 37.46 L 28.2 36.96 L 27.61 36.42 L 27.06 35.83 L 26.56 35.2 L 26.11 34.53 L 25.71 33.83 L 25.34 33.09 L 25.03 32.33 L 24.75 31.53 L 24.51 30.72 L 24.32 29.88 L 24.16 29.03 L 24.04 28.16 L 23.95 27.29 L 23.9 26.4 L 23.89 25.52 L 23.94 24.21 L 24.11 22.96 L 24.39 21.77 L 24.76 20.63 L 25.23 19.55 L 25.8 18.53 L 26.46 17.59 L 27.2 16.71 L 28.02 15.92 L 28.92 15.2 L 29.89 14.57 L 30.93 14.02 L 32.03 13.57 L 33.19 13.21 L 34.4 12.94 L 35.67 12.78 L 36.02 12.77 L 36.02 12.73 L 36.5 12.75 L 36.98 12.73 L 36.98 12.77 L 37.33 12.78 Z" stroke-linecap="round" />
</g>
		<g transform="matrix(1 0 0 1 0 35.06)" id="RSAQnv3w30WXNaUGjebdn"  >
<path style="stroke: none; stroke-width: 1; stroke-dasharray: none; stroke-linecap: butt; stroke-dashoffset: 0; stroke-linejoin: miter; stroke-miterlimit: 4; fill: rgb(102,104,118); fill-rule: nonzero; opacity: 1;" vector-effect="non-scaling-stroke"  transform=" translate(-36.5, -71.56)" d="M 66.26 71.56 C 66.26 87.39 52.92 100.23 36.5 100.23 C 20.08 100.23 6.74 87.39 6.74 71.56 C 6.74 55.74 20.08 42.89 36.5 42.89 C 52.92 42.89 66.26 55.74 66.26 71.56 Z" stroke-linecap="round" />
</g>
</g>
</g>
</svg>