<?xml version="1.0" encoding="UTF-8" standalone="no"?>
<!DOCTYPE svg PUBLIC "-//W3C//DTD SVG 1.1//EN" "http://www.w3.org/Graphics/SVG/1.1/DTD/svg11.dtd">
<svg version="1.1" xmlns="http://www.w3.org/2000/svg" xmlns:xlink="http://www.w3.org/1999/xlink" preserveAspectRatio="xMidYMid meet" viewBox="0 0 73 73" width="73" height="73"><defs><path d="M0 0L73.27 0L73.27 73L0 73L0 0Z" id="l1Af2ud3Zz"></path><path d="M37.33 12.78L38.6 12.94L39.81 13.21L40.97 13.57L42.07 14.02L43.11 14.57L44.08 15.2L44.98 15.92L45.8 16.71L46.54 17.59L47.2 18.53L47.77 19.55L48.24 20.63L48.61 21.77L48.89 22.96L49.06 24.21L49.11 25.52L49.1 26.4L49.05 27.29L48.96 28.16L48.84 29.03L48.68 29.88L48.49 30.72L48.25 31.53L47.97 32.33L47.66 33.09L47.29 33.83L46.89 34.53L46.44 35.2L45.94 35.83L45.39 36.42L44.8 36.96L44.16 37.46L43.46 37.9L43.09 38.09L42.69 38.27L42.27 38.42L41.82 38.55L41.35 38.67L40.87 38.77L40.38 38.85L39.88 38.92L39.37 38.98L38.85 39.02L38.34 39.06L37.83 39.08L37.32 39.1L36.98 39.11L36.98 39.13L36.66 39.12L36.5 39.12L36.34 39.12L36.02 39.13L36.02 39.11L35.68 39.1L35.17 39.08L34.66 39.06L34.15 39.02L33.63 38.98L33.12 38.92L32.62 38.85L32.13 38.77L31.65 38.67L31.18 38.55L30.73 38.42L30.31 38.27L29.91 38.09L29.54 37.9L28.84 37.46L28.2 36.96L27.61 36.42L27.06 35.83L26.56 35.2L26.11 34.53L25.71 33.83L25.34 33.09L25.03 32.33L24.75 31.53L24.51 30.72L24.32 29.88L24.16 29.03L24.04 28.16L23.95 27.29L23.9 26.4L23.89 25.52L23.94 24.21L24.11 22.96L24.39 21.77L24.76 20.63L25.23 19.55L25.8 18.53L26.46 17.59L27.2 16.71L28.02 15.92L28.92 15.2L29.89 14.57L30.93 14.02L32.03 13.57L33.19 13.21L34.4 12.94L35.67 12.78L36.02 12.77L36.02 12.73L36.5 12.75L36.98 12.73L36.98 12.77L37.33 12.78Z" id="aQMm6ZkwH"></path><path d="M66.26 71.56C66.26 87.39 52.92 100.23 36.5 100.23C20.08 100.23 6.74 87.39 6.74 71.56C6.74 55.74 20.08 42.89 36.5 42.89C52.92 42.89 66.26 55.74 66.26 71.56Z" id="b3v4c56by"></path></defs><g><g><g><use xlink:href="#l1Af2ud3Zz" opacity="1" fill="#c4c4c4" fill-opacity="1"></use></g><g><use xlink:href="#aQMm6ZkwH" opacity="1" fill="#666876" fill-opacity="1"></use></g><g><use xlink:href="#b3v4c56by" opacity="1" fill="#666876" fill-opacity="1"></use></g></g></g></svg>