<?xml version="1.0" encoding="UTF-8" standalone="no" ?>
<!DOCTYPE svg PUBLIC "-//W3C//DTD SVG 1.1//EN" "http://www.w3.org/Graphics/SVG/1.1/DTD/svg11.dtd">
<svg xmlns="http://www.w3.org/2000/svg" xmlns:xlink="http://www.w3.org/1999/xlink" version="1.1" width="64" height="64" viewBox="0 0 64 64" xml:space="preserve">
<desc>Created with Fabric.js 4.6.0</desc>
<defs>
</defs>
<g transform="matrix(0.33 0 0 0.33 32 32)" id="YHzlLtFQCGDJ6S4JdaJk6"  >
<g style="" vector-effect="non-scaling-stroke"   >
		<g transform="matrix(0.91 0 0 1.12 -30.28 -51.74)" id="rOD12wUSS9sWlEEzE6xWa"  >
<path style="stroke: rgb(232,78,237); stroke-width: 0; stroke-dasharray: none; stroke-linecap: butt; stroke-dashoffset: 0; stroke-linejoin: miter; stroke-miterlimit: 4; fill: rgb(69,192,224); fill-rule: nonzero; opacity: 1;" vector-effect="non-scaling-stroke"  transform=" translate(0, 0)" d="M 7.00081 -24.50284 C 20.52638 -24.50284 24.502840000000003 -13.525569999999998 24.502840000000003 0 C 24.502840000000003 13.52557 13.525570000000002 24.50284 3.552713678800501e-15 24.50284 C -13.525569999999997 24.50284 -24.502839999999996 13.525569999999998 -24.502839999999996 0 C -24.502839999999996 -13.52557 -6.524749999999994 -24.50284 7.0008200000000045 -24.50284 z" stroke-linecap="round" />
</g>
		<g transform="matrix(0.91 0 0 1.12 -69.32 6.52)" id="WRRkSbHHFstzu9kIPbLb-"  >
<path style="stroke: rgb(232,78,237); stroke-width: 0; stroke-dasharray: none; stroke-linecap: butt; stroke-dashoffset: 0; stroke-linejoin: miter; stroke-miterlimit: 4; fill: rgb(69,192,224); fill-rule: nonzero; opacity: 1;" vector-effect="non-scaling-stroke"  transform=" translate(0, 0)" d="M 7.00081 -24.50284 C 20.52638 -24.50284 24.502840000000003 -13.525569999999998 24.502840000000003 0 C 24.502840000000003 13.52557 13.525570000000002 24.50284 3.552713678800501e-15 24.50284 C -13.525569999999997 24.50284 -24.502839999999996 13.525569999999998 -24.502839999999996 0 C -24.502839999999996 -13.52557 -6.524749999999994 -24.50284 7.0008200000000045 -24.50284 z" stroke-linecap="round" />
</g>
		<g transform="matrix(-0.91 0 0 1.12 30.28 -51.74)" id="Fn4qGh1iE_CR9iFuvUBPh"  >
<path style="stroke: rgb(232,78,237); stroke-width: 0; stroke-dasharray: none; stroke-linecap: butt; stroke-dashoffset: 0; stroke-linejoin: miter; stroke-miterlimit: 4; fill: rgb(69,192,224); fill-rule: nonzero; opacity: 1;" vector-effect="non-scaling-stroke"  transform=" translate(0, 0)" d="M 7.00081 -24.50284 C 20.52638 -24.50284 24.502840000000003 -13.525569999999998 24.502840000000003 0 C 24.502840000000003 13.52557 13.525570000000002 24.50284 3.552713678800501e-15 24.50284 C -13.525569999999997 24.50284 -24.502839999999996 13.525569999999998 -24.502839999999996 0 C -24.502839999999996 -13.52557 -6.524749999999994 -24.50284 7.0008200000000045 -24.50284 z" stroke-linecap="round" />
</g>
		<g transform="matrix(-0.91 0 0 1.12 69.32 6.52)" id="1NCnDMNSIzyfutQkGtpws"  >
<path style="stroke: rgb(232,78,237); stroke-width: 0; stroke-dasharray: none; stroke-linecap: butt; stroke-dashoffset: 0; stroke-linejoin: miter; stroke-miterlimit: 4; fill: rgb(69,192,224); fill-rule: nonzero; opacity: 1;" vector-effect="non-scaling-stroke"  transform=" translate(0, 0)" d="M 7.00081 -24.50284 C 20.52638 -24.50284 24.502840000000003 -13.525569999999998 24.502840000000003 0 C 24.502840000000003 13.52557 13.525570000000002 24.50284 3.552713678800501e-15 24.50284 C -13.525569999999997 24.50284 -24.502839999999996 13.525569999999998 -24.502839999999996 0 C -24.502839999999996 -13.52557 -6.524749999999994 -24.50284 7.0008200000000045 -24.50284 z" stroke-linecap="round" />
</g>
		<g transform="matrix(2.23 0 0 1.59 0.18 30.68)" id="61Oj4rvrG5efZxUGrSpKu"  >
<path style="stroke: none; stroke-width: 1; stroke-dasharray: none; stroke-linecap: butt; stroke-dashoffset: 0; stroke-linejoin: miter; stroke-miterlimit: 4; fill: rgb(69,192,224); fill-rule: nonzero; opacity: 1;" vector-effect="non-scaling-stroke"  transform=" translate(0, 0)" d="M 14.33065 -10.11512 C 14.84914 -8.819389999999999 15.44943 -7.591479999999999 16.12432 -6.446149999999999 L 24.90701 8.458630000000001 L 24.90701 8.458630000000001 C 27.34623 12.645560000000001 27.73707 18.48601 25.89593 23.23638 C 24.05478 27.98675 20.34758 30.7029 16.515810000000002 30.1089 L 3.4597000000000016 27.71851 L 3.4597000000000016 27.71851 C 1.0547500000000016 27.259539999999998 -1.3843999999999985 27.27984 -3.7852999999999986 27.77882 L -16.52497 29.9934 L -16.52497 29.9934 C -20.33764 30.651590000000002 -24.05096 27.981920000000002 -25.895870000000002 23.25625 C -27.74078 18.53058 -27.344120000000004 12.7047 -24.89488 8.55413 L -16.07477 -6.348239999999999 L -16.07477 -6.348239999999999 C -15.35842 -7.558569999999999 -14.72328 -8.859079999999999 -14.177430000000001 -10.23321 L -9.308890000000002 -22.48933 L -9.308890000000002 -22.48933 C -7.423460000000002 -27.23573 -3.855550000000002 -30.18134 0.018419999999998993 -30.189799999999998 C 3.892389999999999 -30.198259999999998 7.466829999999999 -27.26825 9.362789999999999 -22.530119999999997 z" stroke-linecap="round" />
</g>
</g>
</g>
</svg>